<?xml version="1.0" encoding="UTF-8"?>
<svg version="1.1" xmlns="http://www.w3.org/2000/svg" width="284" height="284">
<path d="M0 0 C93.72 0 187.44 0 284 0 C284 93.72 284 187.44 284 284 C190.28 284 96.56 284 0 284 C0 190.28 0 96.56 0 0 Z " fill="#005232" transform="translate(0,0)"/>
<path d="M0 0 C0.28496243 7.04490456 -0.19767557 13.93849426 -0.9375 20.9375 C-1.02435059 21.76612549 -1.11120117 22.59475098 -1.20068359 23.44848633 C-1.59884641 27.05292696 -2.05918135 30.49125352 -3 34 C-3.83660156 34.09796875 -4.67320312 34.1959375 -5.53515625 34.296875 C-27.33643344 37.09748204 -46.40369704 44.13697666 -61.05078125 61.25 C-69.16785329 72.70174091 -73.83036797 85.74335493 -75.6875 99.5625 C-76.120625 102.676875 -76.55375 105.79125 -77 109 C-88.22 109 -99.44 109 -111 109 C-111.99 101.08 -111.99 101.08 -113 93 C-113.66992448 89.95863994 -114.32686503 87.13053061 -115.25 84.1875 C-115.46615967 83.48230225 -115.68231934 82.77710449 -115.9050293 82.05053711 C-121.46795744 64.69539122 -132.96981837 51.21308692 -149.02441406 42.78222656 C-161.44802814 36.61002398 -174.38173765 35.2668151 -188 34 C-188 22.78 -188 11.56 -188 0 C-166.09265612 -1.28866729 -148.69321521 5.43397293 -129.01245117 14.58544922 C-117.94925758 19.65332239 -107.77072515 21.50437013 -95.625 21.3125 C-94.43543701 21.29977051 -93.24587402 21.28704102 -92.02026367 21.27392578 C-73.59384531 20.96839695 -58.6945042 17.31661488 -42.92578125 7.671875 C-30.74713451 0.71264829 -13.92711647 -4.02983694 0 0 Z " fill="#FDC00E" transform="translate(237,143)"/>
<path d="M0 0 C1.08334366 25.72941204 -6.18237388 50.01670308 -23 70 C-23.43441406 70.57878906 -23.86882812 71.15757813 -24.31640625 71.75390625 C-39.20840176 90.91345868 -66.50575717 101.18147481 -89.78125 104.52734375 C-111.26118009 107.15255784 -131.03209357 102.19494715 -148.5 89.1875 C-160.8495642 78.58140368 -168.85238322 62.03270349 -171 46 C-171.0620775 44.37605252 -171.08712041 42.74994703 -171.0625 41.125 C-171.05347656 40.34382813 -171.04445313 39.56265625 -171.03515625 38.7578125 C-171.02355469 38.17773438 -171.01195312 37.59765625 -171 37 C-153.45555244 35.78351288 -139.85657699 41.58405333 -126.375 52.625 C-116.70579753 61.62081159 -111.13258241 73.05943262 -106 85 C-105.71608398 85.66032227 -105.43216797 86.32064453 -105.13964844 87.00097656 C-104.42443517 88.6664615 -103.71194336 90.33311466 -103 92 C-102.84144531 91.00742188 -102.68289062 90.01484375 -102.51953125 88.9921875 C-97.72606453 60.46486969 -84.51999516 36.2842477 -61.03125 19.1328125 C-43.28340751 6.64528415 -21.79574712 -0.44481117 0 0 Z " fill="#00C95E" transform="translate(238,37)"/>
<path d="M0 0 C13.80501603 1.22711254 26.33488949 8.28018671 35.85546875 18.1953125 C42.95378258 27.47871748 47 37.35021008 47 49 C33.14 49 19.28 49 5 49 C4.34 43.39 3.68 37.78 3 32 C2.71898437 29.64488281 2.43796875 27.28976563 2.1484375 24.86328125 C1.89048392 22.67970416 1.63266869 20.49611072 1.375 18.3125 C1.2409375 17.19939453 1.106875 16.08628906 0.96875 14.93945312 C0.84242187 13.86244141 0.71609375 12.78542969 0.5859375 11.67578125 C0.4729834 10.72614502 0.3600293 9.77650879 0.24365234 8.7980957 C-0.01290852 5.85175894 -0.04092269 2.9559826 0 0 Z " fill="#FCBF0E" transform="translate(54,202)"/>
<path d="M0 0 C-0.65241139 16.40027263 -2.36707667 32.67076672 -4 49 C-17.86 49 -31.72 49 -46 49 C-46 36.66906188 -43.12772906 28.20885216 -35 19 C-34.42636719 18.33355469 -33.85273438 17.66710937 -33.26171875 16.98046875 C-25.37641562 8.44213844 -12.14108386 0 0 0 Z " fill="#FCBF0E" transform="translate(230,202)"/>
<path d="M0 0 C0.33 0 0.66 0 1 0 C1 4.95 1 9.9 1 15 C-3.62 15 -8.24 15 -13 15 C-10.65331203 13.23998402 -8.30144145 11.48677331 -5.9375 9.75 C-2.58020383 6.97066874 -1.43523717 4.06650532 0 0 Z " fill="#000000" transform="translate(283,269)"/>
<path d="M0 0 C1.76001598 2.34668797 3.51322669 4.69855855 5.25 7.0625 C8.02933126 10.41979617 10.93349468 11.56476283 15 13 C15 13.33 15 13.66 15 14 C10.05 14 5.1 14 0 14 C0 9.38 0 4.76 0 0 Z " fill="#000000" transform="translate(0,270)"/>
<path d="M0 0 C4.95 0 9.9 0 15 0 C15 4.62 15 9.24 15 14 C13.23998402 11.65331203 11.48677331 9.30144145 9.75 6.9375 C6.97066874 3.58020383 4.06650532 2.43523717 0 1 C0 0.67 0 0.34 0 0 Z " fill="#000000" transform="translate(269,0)"/>
<path d="M0 0 C4.62 0 9.24 0 14 0 C11.65331203 1.76001598 9.30144145 3.51322669 6.9375 5.25 C3.58020383 8.02933126 2.43523717 10.93349468 1 15 C0.67 15 0.34 15 0 15 C0 10.05 0 5.1 0 0 Z " fill="#000000" transform="translate(0,0)"/>
</svg>
